<?xml version="1.0" encoding="UTF-8"?>
<svg data-name="Layer 1" id="Layer_1" viewBox="0 0 512 512" xmlns="http://www.w3.org/2000/svg"><path d="M409.26,309a4.53,4.53,0,1,0,0-9.06H384a4.52,4.52,0,0,0-4.53,4.53v4.9c-15.14-2.2-29.65-15.48-44.22-40.44a13.28,13.28,0,0,0-9.42-6.45,13.58,13.58,0,0,0-11.25,3.43,22,22,0,0,0-5.78,24.48c3.09,7.71,5.68,12.7,9.47,17.63H303.4A24,24,0,0,0,279.47,332v33.88A24,24,0,0,0,303.4,389.8H341a12,12,0,0,0,1.23-.09,30.41,30.41,0,0,0,21.13-11.24,3.51,3.51,0,0,1,2.76-1.32h13.26v8.11A4.53,4.53,0,0,0,384,389.8h25.31a4.54,4.54,0,0,0,0-9.07H388.48V309Zm-29.84,59.05H366.16a12.53,12.53,0,0,0-9.84,4.73,21.34,21.34,0,0,1-14.82,7.87l-.46.05H303.4a14.88,14.88,0,0,1-14.86-14.87V332a14.88,14.88,0,0,1,14.86-14.87h24.88a4.53,4.53,0,0,0,3.24-7.7c-7.8-8-10.42-12.56-14.35-22.37a12.93,12.93,0,0,1,3.61-14.52,4.24,4.24,0,0,1,3.57-1,4.19,4.19,0,0,1,3,2.06c16.44,28.18,33.51,43,52,45Z"/><path d="M178.25,159.5H270.3a4.53,4.53,0,0,0,0-9.06H178.25a4.53,4.53,0,0,0,0,9.06Z"/><path d="M270.3,182.07H255.64a4.54,4.54,0,0,0,0,9.07H270.3a4.54,4.54,0,0,0,0-9.07Z"/><path d="M178.25,191.14H235a4.54,4.54,0,0,0,0-9.07H178.25a4.54,4.54,0,0,0,0,9.07Z"/><path d="M274.83,218.23a4.53,4.53,0,0,0-4.53-4.53H178.25a4.53,4.53,0,0,0,0,9.06H270.3A4.53,4.53,0,0,0,274.83,218.23Z"/><path d="M460.37,451.84c-18.91-15.84-18-45.81-17.55-52.4A54.2,54.2,0,0,0,455,365.17V289.89a54.25,54.25,0,0,0-54.19-54.19h-5.36a87,87,0,0,0,1.4-15.57V138.69a86.63,86.63,0,0,0-86.53-86.53H136.55A86.63,86.63,0,0,0,50,138.69v81.44a86.65,86.65,0,0,0,81.17,86.37c-2.44,10.72-11.45,37.39-42.87,57.61a4.53,4.53,0,0,0,1.8,8.3,72.52,72.52,0,0,0,9,.47c21,0,73.74-6.39,106.47-66.21h24v58.5a54.25,54.25,0,0,0,54.19,54.19h94.95c6,6.94,30,31.39,77.86,40.4a4,4,0,0,0,.83.08,4.53,4.53,0,0,0,2.92-8ZM229.62,297.6H202.89a4.52,4.52,0,0,0-4,2.43c-28.52,54.27-73,63-94.77,63.85,33.72-27.19,36.83-59.86,37-61.37a4.54,4.54,0,0,0-4.51-4.91,77.55,77.55,0,0,1-77.47-77.47V138.69a77.55,77.55,0,0,1,77.47-77.47h173.8a77.55,77.55,0,0,1,77.47,77.47v81.44a77.81,77.81,0,0,1-1.57,15.57h-76V225.18h0V131.65a4.53,4.53,0,0,0-1.46-3.33L263.21,86.25a4.52,4.52,0,0,0-3.07-1.2H141.21a4.53,4.53,0,0,0-4.53,4.53V233.81a4.53,4.53,0,1,0,9.06,0V94.11H255v37.22a4.53,4.53,0,0,0,4.54,4.53h41.64V235.7H283.81a54.25,54.25,0,0,0-54.19,54.19Zm64.13-170.8H264V99.36Zm90.79,285.31a4.55,4.55,0,0,0-3.63-1.82h-97.1a45.18,45.18,0,0,1-45.13-45.12V289.89a45.18,45.18,0,0,1,45.13-45.12h117A45.17,45.17,0,0,1,446,289.89v75.28a45.09,45.09,0,0,1-11,29.49,4.47,4.47,0,0,0-1.07,2.44c-.16,1.4-3.15,29.32,10.81,50.61C403.13,436.11,384.73,412.36,384.54,412.11Z"/></svg>