<?xml version="1.0" ?><svg data-name="Layer 1" id="Layer_1" viewBox="0 0 512 512" xmlns="http://www.w3.org/2000/svg"><path d="M376.48,261.64a5,5,0,0,0,8.15-4.24l-2.86-38.95a66.67,66.67,0,0,0,9.17-33.63c0-16.86-6.4-32.89-18.5-46.52a80.94,80.94,0,0,0,.51-9C373,73.88,316.45,28.78,247,28.78S121.06,73.88,121.06,129.32a83.24,83.24,0,0,0,11.62,42.28l-4.09,45.89a5,5,0,0,0,7.76,4.6L163,204.25a134.53,134.53,0,0,0,39.45,19.14c17.63,25.82,51.18,41.79,88.11,41.79,24.45,0,47.71-7,66-19.77Zm-213.36-68.5a4.94,4.94,0,0,0-2.78.85l-20.86,14,3.31-37.08a5,5,0,0,0-.7-3,73.59,73.59,0,0,1-11-38.53c0-49.93,52-90.54,116-90.54S363,79.39,363,129.32s-52,90.54-115.94,90.54c-30.36,0-59.08-9.13-80.86-25.7A5,5,0,0,0,163.12,193.14Zm127.42,62c-28.76,0-55.15-10.44-72.07-27.91A157.23,157.23,0,0,0,247,229.86c60,0,110.37-33.7,122.92-78.65a58,58,0,0,1,11,33.61,57.08,57.08,0,0,1-8.54,29.84,5,5,0,0,0-.72,3l2.13,28.95-13.95-11.35a5,5,0,0,0-6.18-.1C336.68,248.06,314.26,255.18,290.54,255.18Z" style="fill:#231f20"/><path d="M246.86,127.93c-12.06,0-12.08,18.75,0,18.75S259,127.93,246.86,127.93Z" style="fill:#231f20"/><path d="M187.69,127.93c-12.06,0-12.08,18.75,0,18.75S199.77,127.93,187.69,127.93Z" style="fill:#231f20"/><path d="M306,146.68c12.07,0,12.09-18.75,0-18.75S294,146.68,306,146.68Z" style="fill:#231f20"/><path d="M138.58,376.37a45.42,45.42,0,1,0-47.44-.59,42.38,42.38,0,0,0-26.72,39.33v63.11a5,5,0,0,0,10,0V415.11a32.36,32.36,0,0,1,32.32-32.32h14.19a35.35,35.35,0,0,1,35.31,35.31v60.12a5,5,0,0,0,10,0V418.1A45.37,45.37,0,0,0,138.58,376.37Zm-58.66-39a35.41,35.41,0,1,1,35.41,35.41A35.45,35.45,0,0,1,79.92,337.38Z" style="fill:#231f20"/><path d="M419.92,376.37a45.42,45.42,0,1,0-47.44-.59,42.37,42.37,0,0,0-26.72,39.33v63.11a5,5,0,0,0,10,0V415.11a32.36,32.36,0,0,1,32.32-32.32h14.19a35.35,35.35,0,0,1,35.31,35.31v60.12a5,5,0,0,0,10,0V418.1A45.37,45.37,0,0,0,419.92,376.37Zm-58.66-39a35.41,35.41,0,1,1,35.41,35.41A35.44,35.44,0,0,1,361.26,337.38Z" style="fill:#231f20"/></svg>