<?xml version="1.0" encoding="UTF-8"?>
<svg data-name="Layer 1" id="Layer_1" viewBox="0 0 512 512" xmlns="http://www.w3.org/2000/svg"><title/><path d="M221.7,273.1a6.48,6.48,0,0,0,6.48-6.48v-9.37h37a42.14,42.14,0,1,0,0-12.95H187.61a6.48,6.48,0,0,0-6.48,6.48v22.35a6.48,6.48,0,0,0,13,0V257.25h21.15v9.37A6.47,6.47,0,0,0,221.7,273.1Zm84.95-51.51a29.19,29.19,0,1,1-29.19,29.19A29.22,29.22,0,0,1,306.65,221.59Z"/><path d="M444.16,407H395.38a6.2,6.2,0,0,0-1.66.22L270.2,439.88a62.53,62.53,0,0,1-58.91-11.72L77.63,323.86a38.84,38.84,0,0,1,38.93-6.3l78.74,36.3a74.78,74.78,0,0,0-9.94,11.41,22.32,22.32,0,0,0-1,24,23.25,23.25,0,0,0,22.14,12l111.22-7.9a6.48,6.48,0,0,0,6-6.91,6.62,6.62,0,0,0-6.92-6l-111.22,7.9a10.61,10.61,0,0,1-10-5.43,9.33,9.33,0,0,1,.34-10.18,68.22,68.22,0,0,1,14.62-14.8c26.14-12.15,96.93-43.08,119.18-44.25,26.37-1.57,64,21.36,64.4,21.59a6.5,6.5,0,0,0,3.36.94h46.62a6.48,6.48,0,0,0,0-13H399.31c-7.94-4.61-42.82-23.88-70.21-22.52C302,302.12,222.9,338,207.31,345.14l-85.65-39.48a52,52,0,0,0-58.74,14.58,6.47,6.47,0,0,0,.94,9.31l139.32,108.7a75.07,75.07,0,0,0,70.61,14.07l122.44-32.39h47.93a6.48,6.48,0,0,0,0-12.95Z"/><path d="M301.4,154.11c-26.14,12.16-96.93,43.09-119.17,44.25-26.31,1.64-64-21.36-64.41-21.59a6.5,6.5,0,0,0-3.36-.94H67.85a6.48,6.48,0,1,0,0,12.95h44.84c7.66,4.44,40.57,22.59,67.3,22.59,1,0,2,0,2.93-.07C210,209.87,289.1,174,304.69,166.85l85.65,39.47a52,52,0,0,0,58.75-14.58,6.5,6.5,0,0,0-.95-9.3L308.82,73.75a75.18,75.18,0,0,0-70.61-14.08L115.78,92.06H67.85a6.48,6.48,0,1,0,0,13h48.77a6.2,6.2,0,0,0,1.66-.22L241.8,72.11a62.48,62.48,0,0,1,58.91,11.72l133.66,104.3a38.84,38.84,0,0,1-38.93,6.29L316.7,158.13a75.16,75.16,0,0,0,9.94-11.4,22.34,22.34,0,0,0,1-24,23.4,23.4,0,0,0-22.14-11.95l-111.22,7.89a6.48,6.48,0,0,0-6,6.91,6.57,6.57,0,0,0,6.91,6l111.22-7.9a10.76,10.76,0,0,1,10,5.44,9.33,9.33,0,0,1-.34,10.18A68.34,68.34,0,0,1,301.4,154.11Z"/></svg>