<?xml version="1.0" encoding="UTF-8"?>
<svg data-name="Layer 1" id="Layer_1" viewBox="0 0 512 512" xmlns="http://www.w3.org/2000/svg"><path d="M462.55,443.34H49.45a5.38,5.38,0,1,0,0,10.76h413.1a5.38,5.38,0,0,0,0-10.76Z"/><path d="M333.43,288.79h0a5.39,5.39,0,0,0,5.37-5.39l-.13-81a56.37,56.37,0,0,1,56.14-56.58h.23a56.35,56.35,0,0,1,56.35,56.11l.12,81a5.38,5.38,0,0,0,5.38,5.38h0a5.38,5.38,0,0,0,5.36-5.39l-.12-81a67.06,67.06,0,0,0-44.85-63A43.63,43.63,0,0,0,394.63,57.9h-.18A43.67,43.67,0,0,0,372.17,139a67.25,67.25,0,0,0-44.25,63.4l.13,81A5.38,5.38,0,0,0,333.43,288.79Zm28.32-187.11a32.93,32.93,0,0,1,32.76-33h.12a32.88,32.88,0,0,1,.13,65.76,32.1,32.1,0,0,1-23.28-9.53A32.64,32.64,0,0,1,361.75,101.68Z"/><path d="M357.46,208V407.09a5.39,5.39,0,0,0,10.77,0V208a5.39,5.39,0,0,0-10.77,0Z"/><path d="M422,208V407.09a5.38,5.38,0,0,0,10.76,0V208A5.38,5.38,0,0,0,422,208Z"/><path d="M55.1,374.94a5.34,5.34,0,0,0,3.8-1.57l41.16-41.15v74.87a5.38,5.38,0,0,0,10.76,0V332.23L152,373.37a5.38,5.38,0,1,0,7.62-7.61l-50.33-50.33a5.13,5.13,0,0,0-1.23-.92h0l-.37-.18a.43.43,0,0,0-.12-.05l-.3-.11-.2-.07-.27-.07a1.83,1.83,0,0,0-.25-.06l-.26,0-.26,0-.47,0h-.06l-.54,0-.14,0-.39.06-.14,0-.37.1-.12,0-.38.14-.09,0-.38.19-.11.06-.33.2a2.85,2.85,0,0,0-.33.25l-.08.05a5,5,0,0,0-.47.45L51.3,365.76a5.37,5.37,0,0,0,3.8,9.18Z"/><path d="M198,257.19l41.14-41.14v191a5.38,5.38,0,0,0,10.76,0v-191l41.14,41.14a5.38,5.38,0,0,0,7.62,0,5.39,5.39,0,0,0,0-7.61l-50.33-50.33a6,6,0,0,0-.47-.41,5.35,5.35,0,0,0-6.68,0,3.73,3.73,0,0,0-.47.41l-50.33,50.33a5.38,5.38,0,0,0,7.62,7.61Z"/></svg>