<?xml version="1.0" encoding="UTF-8"?>
<svg data-name="Layer 1" id="Layer_1" viewBox="0 0 512 512" xmlns="http://www.w3.org/2000/svg"><path d="M297.14,116.75a127.53,127.53,0,1,0,37.36,90.19A126.73,126.73,0,0,0,297.14,116.75Zm-150,190.58V263a59.79,59.79,0,0,1,119.58,0v44.3a117.13,117.13,0,0,1-119.58,0Zm24.78-150.47a35,35,0,1,1,35,35A35,35,0,0,1,171.92,156.86ZM289.51,289.53a118.88,118.88,0,0,1-12,10.5V263A70.67,70.67,0,0,0,230,196.36a45.78,45.78,0,1,0-46.17,0A70.67,70.67,0,0,0,136.38,263v37a118.88,118.88,0,0,1-12-10.5,116.81,116.81,0,1,1,165.15,0Z"/><path d="M458.38,412.37,343.14,297.14l-.33-.29c41.86-63.23,35-149.45-20.67-205.1h0c-63.52-63.5-166.87-63.53-230.39,0s-63.5,166.87,0,230.38a163.22,163.22,0,0,0,205.09,20.69c.1.11.19.22.29.32L412.37,458.38a32.53,32.53,0,0,0,46-46Zm-359-97.85C40,255.2,40,158.68,99.37,99.36a152.33,152.33,0,0,1,215.15,0c59.32,59.32,59.32,155.84,0,215.16S158.67,373.85,99.37,314.52Zm351.4,136.25a21.81,21.81,0,0,1-30.79,0L305.71,336.5a163.67,163.67,0,0,0,30.78-30.77L450.76,420A21.8,21.8,0,0,1,450.77,450.77Z"/></svg>