<?xml version="1.0" ?><svg id="Layer_1" style="enable-background:new 0 0 512 512;" version="1.1" viewBox="0 0 512 512" xml:space="preserve" xmlns="http://www.w3.org/2000/svg" xmlns:xlink="http://www.w3.org/1999/xlink"><style type="text/css">
	.st0{fill:none;stroke:#000000;stroke-width:15;stroke-linejoin:round;stroke-miterlimit:10;}
	.st1{fill:#FFFFFF;stroke:#000000;stroke-width:15;stroke-linejoin:round;stroke-miterlimit:10;}
	.st2{fill:#FFFFFF;stroke:#000000;stroke-width:10;stroke-linecap:round;stroke-linejoin:round;stroke-miterlimit:10;}
	.st3{fill:#FFFFFF;stroke:#000000;stroke-width:15;stroke-linecap:round;stroke-linejoin:round;stroke-miterlimit:10;}
	.st4{fill:none;stroke:#000000;stroke-width:15;stroke-linecap:round;stroke-linejoin:round;stroke-miterlimit:10;}
	.st5{fill:none;stroke:#000000;stroke-width:10;stroke-linecap:round;stroke-linejoin:round;stroke-miterlimit:10;}
	.st6{fill:#FFFFFF;stroke:#000000;stroke-width:8;stroke-linecap:round;stroke-linejoin:round;stroke-miterlimit:10;}
	.st7{fill:#FFFFFF;stroke:#000000;stroke-width:10;stroke-linejoin:round;stroke-miterlimit:10;}
	.st8{fill:#FFFFFF;stroke:#000000;stroke-width:12;stroke-linecap:round;stroke-linejoin:round;stroke-miterlimit:10;}
	.st9{fill:none;stroke:#000000;stroke-width:8;stroke-linecap:round;stroke-linejoin:round;stroke-miterlimit:10;}
	.st10{fill:none;stroke:#000000;stroke-width:7;stroke-linecap:round;stroke-linejoin:round;stroke-miterlimit:10;}
	.st11{fill:none;stroke:#000000;stroke-width:12;stroke-linejoin:round;stroke-miterlimit:10;}
	.st12{fill:#FFFFFF;stroke:#000000;stroke-width:10;stroke-miterlimit:10;}
	.st13{fill:none;stroke:#000000;stroke-width:12;stroke-linecap:round;stroke-linejoin:round;stroke-miterlimit:10;}
	.st14{fill:none;stroke:#000000;stroke-width:10;stroke-linejoin:round;stroke-miterlimit:10;}
	.st15{fill:none;stroke:#000000;stroke-width:15;stroke-linecap:round;stroke-miterlimit:10;}
	.st16{fill:none;}
	.st17{fill:#FFFFFF;}
	.st18{fill:#FFFFFF;stroke:#000000;stroke-width:15;stroke-miterlimit:10;}
	.st19{fill:#FFFFFF;stroke:#000000;stroke-width:15;stroke-linecap:round;stroke-miterlimit:10;}
</style><g><path class="st15" d="M288.2,50.5H178.7c-5.9,0-10.7,4.8-10.7,10.7v31c0,5.9,4.8,10.7,10.7,10.7h154.6c5.9,0,10.7-4.8,10.7-10.7   v-31c0-5.9-4.8-10.7-10.7-10.7h-15.9H288.2z"/><g><g><path class="st16" d="M349.9,462H162.1c-24.8,0-44.9-20.1-44.9-44.9V211.7c0-9.8,3.2-19.3,9.1-27.1l48.3-63.8     c8.5-11.2,21.7-17.8,35.8-17.8h93.2c14.3,0,27.8,6.8,36.2,18.4l46.3,63.4c5.6,7.7,8.6,16.9,8.6,26.5v205.9     C394.8,441.9,374.7,462,349.9,462z"/><path d="M349.9,469.5H162.1c-28.9,0-52.4-23.5-52.4-52.4V211.7c0-11.3,3.8-22.6,10.6-31.6l48.3-63.8c9.8-13,25.4-20.7,41.7-20.7     h93.2c16.7,0,32.5,8,42.3,21.5l46.3,63.4c6.6,9,10.1,19.7,10.1,30.9v205.9C402.3,446,378.8,469.5,349.9,469.5z M210.4,110.5     c-11.6,0-22.8,5.5-29.8,14.8l-48.3,63.8c-4.9,6.5-7.6,14.5-7.6,22.6v205.5c0,20.6,16.8,37.4,37.4,37.4h187.8     c20.6,0,37.4-16.8,37.4-37.4V211.2c0-8-2.5-15.6-7.2-22l-46.3-63.4c-7-9.6-18.3-15.3-30.2-15.3H210.4z"/></g><g><g><line class="st17" x1="349.7" x2="394.8" y1="211.7" y2="211.7"/><path d="M394.8,219.2h-45.1c-4.1,0-7.5-3.4-7.5-7.5s3.4-7.5,7.5-7.5h45.1c4.1,0,7.5,3.4,7.5,7.5S398.9,219.2,394.8,219.2z"/></g><g><line class="st17" x1="117.2" x2="323" y1="211.7" y2="211.7"/><path d="M323,219.2H117.2c-4.1,0-7.5-3.4-7.5-7.5s3.4-7.5,7.5-7.5H323c4.1,0,7.5,3.4,7.5,7.5S327.1,219.2,323,219.2z"/></g></g><g><g><line class="st17" x1="162.3" x2="117.2" y1="399.2" y2="399.2"/><path d="M162.3,406.7h-45.1c-4.1,0-7.5-3.4-7.5-7.5s3.4-7.5,7.5-7.5h45.1c4.1,0,7.5,3.4,7.5,7.5S166.5,406.7,162.3,406.7z"/></g><g><line class="st17" x1="394.8" x2="189" y1="399.2" y2="399.2"/><path d="M394.8,406.7H189c-4.1,0-7.5-3.4-7.5-7.5s3.4-7.5,7.5-7.5h205.8c4.1,0,7.5,3.4,7.5,7.5S398.9,406.7,394.8,406.7z"/></g></g><g><g><polygon class="st16" points="310.3,294.5 310.3,282.4 277.6,282.4 277.6,249.8 234.4,249.8 234.4,282.4 201.7,282.4       201.7,294.6 201.7,312.8 201.7,325.7 234.4,325.7 234.4,358.3 277.6,358.3 277.6,325.7 310.3,325.7 310.3,313.5     "/><path d="M277.6,365.8h-43.3c-4.1,0-7.5-3.4-7.5-7.5v-25.1h-25.1c-4.1,0-7.5-3.4-7.5-7.5v-43.3c0-4.1,3.4-7.5,7.5-7.5h25.1v-25.1      c0-4.1,3.4-7.5,7.5-7.5h43.3c4.1,0,7.5,3.4,7.5,7.5v25.1h25.1c4.1,0,7.5,3.4,7.5,7.5v43.3c0,4.1-3.4,7.5-7.5,7.5h-25.1v25.1      C285.1,362.5,281.8,365.8,277.6,365.8z M241.9,350.8h28.3v-25.1c0-4.1,3.4-7.5,7.5-7.5h25.1v-28.3h-25.1c-4.1,0-7.5-3.4-7.5-7.5      v-25.1h-28.3v25.1c0,4.1-3.4,7.5-7.5,7.5h-25.1v28.3h25.1c4.1,0,7.5,3.4,7.5,7.5V350.8z"/></g></g></g></g></svg>