<?xml version="1.0" encoding="iso-8859-1"?>
<!-- Uploaded to: SVG Repo, www.svgrepo.com, Generator: SVG Repo Mixer Tools -->
<!DOCTYPE svg PUBLIC "-//W3C//DTD SVG 1.1//EN" "http://www.w3.org/Graphics/SVG/1.1/DTD/svg11.dtd">
<svg fill="#000000" height="800px" width="800px" version="1.1" id="Capa_1" xmlns="http://www.w3.org/2000/svg" xmlns:xlink="http://www.w3.org/1999/xlink" 
	 viewBox="0 0 92.008 92.008" xml:space="preserve">
<g>
	<path d="M72.633,45.385l-7.422-5.252c-0.762-0.539-1.8-1.742-2.222-2.575L57.131,26c-0.066-0.131-0.153-0.238-0.234-0.352
		c-0.04-0.065-0.082-0.129-0.127-0.191c-0.011-0.014-0.022-0.027-0.034-0.041c-0.548-0.725-1.409-1.202-2.386-1.202H37.52
		c-0.624,0-1.203,0.192-1.684,0.519c-0.304,0.182-0.565,0.448-0.78,0.777c-0.015,0.021-0.029,0.043-0.043,0.065
		c-0.044,0.071-0.098,0.129-0.136,0.205L29.02,37.339c-0.422,0.833-1.46,2.036-2.222,2.575l-7.422,5.252
		c-0.669,0.473-1.09,1.189-1.156,1.963s0.229,1.55,0.809,2.13l0.546,0.546c0.482,0.482,1.128,0.807,1.834,0.937v9.508
		c0,13.524,11.003,24.527,24.527,24.527c0.357,0,0.71-0.012,1.063-0.027v2.256c0,2.757,2.243,5,5,5h0.352c2.757,0,5-2.243,5-5
		v-5.057c7.789-4.114,13.113-12.295,13.113-21.7v-9.277c0.759-0.113,1.458-0.438,1.97-0.95l0.546-0.546
		c0.58-0.58,0.875-1.356,0.809-2.13S73.302,45.858,72.633,45.385z M45.936,81.778c-11.87,0-21.527-9.657-21.527-21.527V50.014
		l7.35-4.532c0.905-0.558,2.028-1.608,2.762-2.554v14.411v0.503v14.707c0,2.757,2.243,5,5,5h0.352c2.757,0,5-2.243,5-5V60.842h2.127
		v20.883C46.644,81.742,46.295,81.778,45.936,81.778z M57.351,78.47V57.842v-0.503V42.963c0.725,0.99,1.935,2.143,2.899,2.737
		l7.214,4.449v10.102C67.464,67.926,63.413,74.657,57.351,78.47z"/>
	<path d="M45.936,21.672c5.975,0,10.836-4.861,10.836-10.836S51.911,0,45.936,0c-5.975,0-10.835,4.861-10.835,10.836
		S39.962,21.672,45.936,21.672z"/>
</g>
</svg>