<?xml version="1.0" encoding="iso-8859-1"?>
<!-- Uploaded to: SVG Repo, www.svgrepo.com, Generator: SVG Repo Mixer Tools -->
<svg fill="#000000" height="800px" width="800px" version="1.1" id="Layer_1" xmlns="http://www.w3.org/2000/svg" xmlns:xlink="http://www.w3.org/1999/xlink" 
	 viewBox="0 0 512 512" xml:space="preserve">
<g>
	<g>
		<path d="M183.431,251.463c-13.934-26.707-23.514-44.734-30.038-56.813c-2.358-4.365-5.856-7.932-10.165-10.39L94.18,156.273
			l0.338-63.357l51.345-41.098c6.287-5.033,7.304-14.211,2.271-20.499c-5.031-6.287-14.209-7.304-20.499-2.272L70.86,74.493
			c-3.436,2.751-5.446,6.906-5.47,11.308l-0.429,80.058L3.898,273.026c-2.547,4.47-3.901,9.543-3.898,14.688
			c0.013,17.842,0.067,68.757,0.295,178.989c0,10.739,8.705,19.445,19.444,19.445c10.739,0,19.444-8.706,19.444-19.445v-164.5
			l7.822,4.458l22.182,162.671c1.457,10.682,11.303,18.09,21.893,16.639c10.641-1.451,18.091-11.253,16.64-21.893l-21.9-160.611
			l9.022-15.833l78.418-15.104C182.836,270.685,187.947,260.117,183.431,251.463z M113.852,254.269l19.912-34.946l14.75,28.27
			L113.852,254.269z"/>
	</g>
</g>
<g>
	<g>
		<circle cx="136.745" cy="126.981" r="33.744"/>
	</g>
</g>
<g>
	<g>
		<path d="M511.069,133.779c-2.792-7.357-11.023-11.054-18.375-8.265l-47.072,17.863l-61.293-4.542h-71.745l-61.308,4.542
			l-47.072-17.863c-7.351-2.791-15.583,0.907-18.375,8.265c-2.791,7.357,0.91,15.584,8.266,18.375l50.058,18.996
			c1.913,0.726,4.007,1.051,6.171,0.883l57.238-4.502V265l-35.317,150.178c-2.342,9.96,3.833,19.932,13.793,22.275
			c9.966,2.342,19.933-3.839,22.275-13.794l35.82-152.318h8.63l35.82,152.318c2.343,9.964,12.319,16.135,22.275,13.794
			c9.96-2.342,16.135-12.315,13.793-22.275l-35.317-150.181v-97.469l57.238,4.502c2.093,0.166,4.206-0.137,6.171-0.883
			l50.058-18.996C510.16,149.362,513.86,141.135,511.069,133.779z"/>
	</g>
</g>
<g>
	<g>
		<circle cx="348.449" cy="81.201" r="31.996"/>
	</g>
</g>
</svg>